<svg width="45" height="28" viewBox="0 0 45 28" fill="none" xmlns="http://www.w3.org/2000/svg">
<path d="M40.0449 1.17773L40.2646 1.20215C41.4772 1.33696 42.5009 2.16483 42.8867 3.32227C43.203 4.27143 43.0462 5.31469 42.4648 6.12891L41.7686 7.10352C41.4421 7.56046 41.0469 7.96481 40.5977 8.30176L38.2861 10.0352C37.756 10.4327 37.1834 10.7711 36.5791 11.043L18.6221 19.123C18.0046 19.4009 17.3573 19.6084 16.6934 19.7412L15.3037 20.0195L15.293 20.0215L15.2832 20.0234L10.8447 21.0088L6.80273 21.377C6.02124 21.448 5.23371 21.3565 4.48926 21.1084L3.11621 20.6514C2.28169 20.3732 1.62681 19.7183 1.34863 18.8838L1.28809 18.7031C1.13602 18.2468 1.13602 17.7532 1.28809 17.2969C1.56516 16.4656 2.30492 15.8743 3.17676 15.7871L6.05078 15.5H8.80371C10.3954 15.5 11.9679 15.1543 13.4131 14.4873L30.1455 6.76465C30.7114 6.50346 31.255 6.1949 31.7686 5.8418L37.6943 1.76758C38.3817 1.29515 39.216 1.08567 40.0449 1.17773Z" stroke="#1D2125" stroke-width="2"/>
<path d="M15.3496 20.7529C16.6923 20.4432 18.0359 21.2666 18.3701 22.6035C18.4458 22.9062 18.4645 23.2207 18.4258 23.5303L18.377 23.9209C18.2146 25.2181 17.2044 26.2467 15.9102 26.4316C15.6382 26.4705 15.3618 26.4705 15.0898 26.4316L14.5811 26.3584C13.4875 26.2022 12.5876 25.4176 12.2842 24.3555L12.2705 24.3066C12.1247 23.7964 12.136 23.2535 12.3037 22.75C12.5939 21.8795 13.3168 21.2229 14.2109 21.0166L15.3496 20.7529Z" stroke="#1D2125" stroke-width="2"/>
<path d="M36.6436 11.3965C37.9792 10.7894 39.5558 11.3479 40.2119 12.6602C40.4013 13.0389 40.5 13.4565 40.5 13.8799V14.5898C40.5 14.7803 40.4769 14.9705 40.4307 15.1553C40.2541 15.8616 39.7571 16.4446 39.0879 16.7314L38.4971 16.9844C37.8262 17.2719 37.0733 17.303 36.3809 17.0723C35.631 16.8223 35.0108 16.2851 34.6572 15.5781L34.583 15.4307C34.2606 14.7857 34.2075 14.0386 34.4355 13.3545C34.6747 12.6373 35.2024 12.0521 35.8906 11.7393L36.6436 11.3965Z" stroke="#1D2125" stroke-width="2"/>
<rect x="12.707" y="14.3536" width="7.29457" height="0.5" transform="rotate(45 12.707 14.3536)" fill="black" stroke="#1D2125" stroke-width="0.5"/>
<rect x="30.707" y="6.35355" width="7.29457" height="0.5" transform="rotate(45 30.707 6.35355)" fill="black" stroke="#1D2125" stroke-width="0.5"/>
</svg>
